<svg viewBox="0 0 206 231" fill="none" xmlns="http://www.w3.org/2000/svg"><style>.tauri-blue{fill:#24c8db}.tauri-orange{fill:#ffc131}@media (prefers-color-scheme:light){.tauri-blue,.tauri-orange{fill:#2f2f2f}}</style><circle cx="125" cy="84" r="22" class="tauri-orange"/><path fill-rule="evenodd" clip-rule="evenodd" d="M167 155c-9 5-19 9-29 11a59 59 0 0 0 3-26 59 59 0 1 0-68-90c-11 1-22 4-32 9a84 84 0 1 1 126 96ZM42 74l21 3 2-12c-8 2-16 5-23 9Z" class="tauri-orange"/><circle cx="84.1" cy="147" r="22" class="tauri-blue"/><path fill-rule="evenodd" clip-rule="evenodd" d="M38 76c9-5 19-9 30-11a59 59 0 0 0-4 26 59 59 0 1 0 68 90c11-1 22-4 32-9A84 84 0 1 1 38 76Zm125 81Z" class="tauri-blue"/></svg>